<svg width="407" height="172" viewBox="0 0 407 172" fill="none" xmlns="http://www.w3.org/2000/svg">
<path d="M7.55545 56.7228L15.1109 41.6119V34.0564H7.55545V18.9456H52.8881C55.0288 18.9456 56.8245 19.6709 58.2752 21.1215C59.7258 22.5722 60.4486 24.3653 60.4436 26.501V34.0564L52.8881 49.1673H30.2218V41.6119L15.1109 56.7228H7.55545ZM0 170.054V118.3C0 116.915 0.221629 115.436 0.664882 113.865C1.10813 112.293 1.64205 110.875 2.26664 109.611L30.2218 56.7228H52.8881C54.6511 58.4857 56.351 60.8481 57.9881 63.8098C59.6251 66.7715 60.4436 69.4462 60.4436 71.8337V170.054H0Z" fill="url(#paint0_linear_11_93)"/>
<path d="M126.925 59.0895H134.819C134.408 62.8722 133.325 66.2575 131.571 69.2453C129.816 72.2331 127.336 74.6041 124.129 76.3585C120.922 78.0853 116.92 78.9488 112.123 78.9488C108.614 78.9488 105.421 78.2909 102.542 76.9752C99.6918 75.6595 97.2385 73.7955 95.1826 71.3834C93.1268 68.9438 91.537 66.0245 90.4131 62.6255C89.3167 59.1991 88.7685 55.389 88.7685 51.1951V45.2332C88.7685 41.0393 89.3167 37.2429 90.4131 33.8439C91.537 30.4176 93.1405 27.4846 95.2238 25.045C97.3344 22.6054 99.8699 20.7278 102.83 19.412C105.791 18.0963 109.121 17.4384 112.822 17.4384C117.344 17.4384 121.168 18.2882 124.293 19.9877C127.418 21.6872 129.844 24.0445 131.571 27.0597C133.325 30.0475 134.408 33.515 134.819 37.4622H126.925C126.541 34.6663 125.828 32.2678 124.787 30.2668C123.745 28.2384 122.265 26.676 120.346 25.5795C118.427 24.4831 115.919 23.9349 112.822 23.9349C110.163 23.9349 107.819 24.442 105.791 25.4562C103.79 26.4704 102.104 27.9095 100.733 29.7734C99.3902 31.6374 98.376 33.8714 97.6907 36.4754C97.0055 39.0795 96.6628 41.9713 96.6628 45.151V51.1951C96.6628 54.1281 96.9644 56.8829 97.5674 59.4596C98.1979 62.0362 99.1435 64.2976 100.404 66.2438C101.665 68.19 103.269 69.725 105.215 70.8488C107.161 71.9453 109.464 72.4935 112.123 72.4935C115.494 72.4935 118.18 71.959 120.181 70.89C122.183 69.8209 123.69 68.2859 124.704 66.2849C125.746 64.2839 126.486 61.8854 126.925 59.0895ZM105.544 0.909597L111.753 7.89941L117.961 0.909597H124.54V1.32076L114.096 12.5867H109.409L99.1298 1.32076V0.909597H105.544ZM152.746 33.6384V78.1265H145.098V33.6384H152.746ZM144.522 21.8379C144.522 20.6044 144.893 19.5628 145.633 18.7131C146.4 17.8633 147.524 17.4384 149.004 17.4384C150.457 17.4384 151.567 17.8633 152.335 18.7131C153.13 19.5628 153.527 20.6044 153.527 21.8379C153.527 23.0166 153.13 24.0308 152.335 24.8805C151.567 25.7029 150.457 26.114 149.004 26.114C147.524 26.114 146.4 25.7029 145.633 24.8805C144.893 24.0308 144.522 23.0166 144.522 21.8379ZM190.861 66.326C190.861 65.2296 190.614 64.2154 190.121 63.2834C189.655 62.324 188.682 61.4606 187.201 60.6931C185.749 59.8981 183.556 59.2129 180.623 58.6372C178.156 58.1164 175.922 57.4997 173.921 56.787C171.947 56.0743 170.261 55.2108 168.863 54.1966C167.493 53.1824 166.438 51.99 165.698 50.6195C164.957 49.2489 164.587 47.6454 164.587 45.8089C164.587 44.0546 164.971 42.3962 165.739 40.8338C166.534 39.2713 167.644 37.8871 169.069 36.681C170.522 35.4749 172.262 34.5292 174.291 33.8439C176.319 33.1587 178.581 32.816 181.075 32.816C184.639 32.816 187.681 33.4465 190.203 34.7074C192.725 35.9683 194.657 37.6541 196 39.7647C197.344 41.848 198.015 44.1642 198.015 46.7134H190.409C190.409 45.4799 190.039 44.2875 189.298 43.1363C188.586 41.9576 187.53 40.9845 186.132 40.217C184.762 39.4495 183.076 39.0657 181.075 39.0657C178.964 39.0657 177.251 39.3947 175.936 40.0525C174.647 40.683 173.702 41.4916 173.098 42.4784C172.523 43.4652 172.235 44.5068 172.235 45.6033C172.235 46.4256 172.372 47.1657 172.646 47.8236C172.948 48.454 173.469 49.0434 174.209 49.5916C174.949 50.1124 175.99 50.6058 177.333 51.0718C178.677 51.5378 180.39 52.0038 182.473 52.4697C186.119 53.2921 189.12 54.2789 191.478 55.4301C193.835 56.5814 195.589 57.9931 196.741 59.6651C197.892 61.3372 198.467 63.3656 198.467 65.7504C198.467 67.6966 198.056 69.4783 197.234 71.0955C196.439 72.7128 195.274 74.1107 193.739 75.2894C192.231 76.4407 190.422 77.3453 188.312 78.0031C186.228 78.6336 183.885 78.9488 181.281 78.9488C177.361 78.9488 174.044 78.2498 171.33 76.8519C168.617 75.4539 166.561 73.6448 165.163 71.4245C163.765 69.2042 163.066 66.8605 163.066 64.3935H170.714C170.823 66.4768 171.426 68.1351 172.523 69.3686C173.619 70.5747 174.962 71.4382 176.552 71.959C178.142 72.4524 179.718 72.6991 181.281 72.6991C183.364 72.6991 185.105 72.425 186.502 71.8768C187.928 71.3285 189.011 70.5747 189.751 69.6153C190.491 68.656 190.861 67.5595 190.861 66.326ZM176.018 15.0126L182.226 22.0024L188.435 15.0126H195.014V15.4237L184.57 26.6897H179.883L169.604 15.4237V15.0126H176.018ZM226.262 72.6991C228.071 72.6991 229.743 72.329 231.278 71.5889C232.813 70.8488 234.074 69.8346 235.061 68.5463C236.048 67.2306 236.61 65.7367 236.747 64.0646H243.983C243.846 66.6961 242.955 69.1494 241.311 71.4245C239.694 73.6722 237.569 75.495 234.938 76.893C232.306 78.2635 229.414 78.9488 226.262 78.9488C222.918 78.9488 219.999 78.3595 217.504 77.1808C215.037 76.0021 212.982 74.3849 211.337 72.329C209.72 70.2732 208.5 67.9159 207.677 65.257C206.883 62.5707 206.485 59.7337 206.485 56.7459V55.019C206.485 52.0312 206.883 49.2078 207.677 46.549C208.5 43.8627 209.72 41.4916 211.337 39.4358C212.982 37.38 215.037 35.7627 217.504 34.584C219.999 33.4054 222.918 32.816 226.262 32.816C229.743 32.816 232.786 33.5287 235.39 34.9541C237.994 36.3521 240.036 38.2708 241.516 40.7104C243.024 43.1226 243.846 45.8637 243.983 48.9337H236.747C236.61 47.0972 236.089 45.4388 235.184 43.9586C234.307 42.4784 233.101 41.2997 231.566 40.4226C230.059 39.518 228.291 39.0657 226.262 39.0657C223.932 39.0657 221.972 39.5317 220.383 40.4637C218.82 41.3683 217.573 42.6018 216.641 44.1642C215.736 45.6992 215.078 47.4124 214.667 49.3038C214.284 51.1677 214.092 53.0728 214.092 55.019V56.7459C214.092 58.692 214.284 60.6108 214.667 62.5022C215.051 64.3935 215.695 66.1067 216.6 67.6417C217.532 69.1768 218.779 70.4103 220.341 71.3422C221.931 72.2468 223.905 72.6991 226.262 72.6991ZM220.383 27.0597L228.359 14.9715H237.528L226.509 27.0597H220.383ZM270.997 78.9488C267.9 78.9488 265.09 78.428 262.568 77.3864C260.074 76.3173 257.922 74.8234 256.113 72.9047C254.331 70.9859 252.961 68.7108 252.001 66.0793C251.042 63.4479 250.562 60.5697 250.562 57.4448V55.7179C250.562 52.0997 251.097 48.8789 252.166 46.0556C253.235 43.2048 254.687 40.7926 256.524 38.819C258.36 36.8455 260.444 35.3516 262.774 34.3373C265.104 33.3231 267.516 32.816 270.01 32.816C273.19 32.816 275.931 33.3643 278.233 34.4607C280.563 35.5571 282.468 37.0922 283.949 39.0657C285.429 41.0119 286.525 43.3145 287.238 45.9733C287.951 48.6048 288.307 51.4829 288.307 54.6078V58.0205H255.085V51.8119H280.7V51.2362C280.591 49.2627 280.18 47.3439 279.467 45.4799C278.782 43.616 277.685 42.081 276.178 40.8749C274.67 39.6688 272.614 39.0657 270.01 39.0657C268.283 39.0657 266.693 39.4358 265.241 40.1759C263.788 40.8886 262.541 41.9576 261.499 43.383C260.457 44.8084 259.649 46.549 259.073 48.6048C258.498 50.6606 258.21 53.0317 258.21 55.7179V57.4448C258.21 59.5555 258.498 61.5428 259.073 63.4067C259.676 65.2433 260.54 66.8605 261.664 68.2585C262.815 69.6565 264.199 70.7529 265.816 71.5478C267.461 72.3427 269.325 72.7402 271.408 72.7402C274.094 72.7402 276.37 72.192 278.233 71.0955C280.097 69.9991 281.728 68.5326 283.126 66.6961L287.731 70.3554C286.772 71.8082 285.552 73.1925 284.072 74.5082C282.592 75.8239 280.769 76.893 278.604 77.7153C276.465 78.5376 273.93 78.9488 270.997 78.9488ZM304.795 43.1363V78.1265H297.188V33.6384H304.384L304.795 43.1363ZM302.986 54.1966L299.82 54.0733C299.847 51.0307 300.299 48.221 301.177 45.6444C302.054 43.0403 303.287 40.7789 304.877 38.8602C306.467 36.9414 308.358 35.4612 310.551 34.4196C312.771 33.3505 315.225 32.816 317.911 32.816C320.104 32.816 322.077 33.1176 323.832 33.7206C325.586 34.2962 327.08 35.2282 328.313 36.5165C329.574 37.8048 330.534 39.4769 331.192 41.5327C331.849 43.5612 332.178 46.0419 332.178 48.9748V78.1265H324.531V48.8926C324.531 46.5627 324.188 44.6987 323.503 43.3008C322.818 41.8754 321.817 40.8475 320.501 40.217C319.186 39.5591 317.568 39.2302 315.65 39.2302C313.758 39.2302 312.031 39.6277 310.469 40.4226C308.934 41.2175 307.604 42.314 306.481 43.7119C305.384 45.1099 304.521 46.7134 303.89 48.5226C303.287 50.3043 302.986 52.1956 302.986 54.1966ZM343.938 33.6384H351.585V83.4305C351.585 86.1442 351.147 88.4467 350.27 90.3381C349.42 92.2294 348.132 93.6548 346.405 94.6142C344.705 95.601 342.553 96.0944 339.949 96.0944C339.264 96.0944 338.469 96.0259 337.565 95.8888C336.633 95.7518 335.851 95.5873 335.221 95.3954L335.262 89.269C335.783 89.3787 336.372 89.4609 337.03 89.5157C337.688 89.598 338.264 89.6391 338.757 89.6391C339.881 89.6391 340.827 89.4335 341.594 89.0223C342.362 88.6112 342.937 87.9533 343.321 87.0488C343.732 86.1442 343.938 84.9381 343.938 83.4305V33.6384ZM343.157 21.8379C343.157 20.6044 343.54 19.5628 344.308 18.7131C345.075 17.8633 346.185 17.4384 347.638 17.4384C349.118 17.4384 350.242 17.8633 351.01 18.7131C351.777 19.5628 352.161 20.6044 352.161 21.8379C352.161 23.0166 351.777 24.0308 351.01 24.8805C350.242 25.7029 349.118 26.114 347.638 26.114C346.185 26.114 345.075 25.7029 344.308 24.8805C343.54 24.0308 343.157 23.0166 343.157 21.8379ZM382.341 78.9488C379.243 78.9488 376.434 78.428 373.912 77.3864C371.417 76.3173 369.266 74.8234 367.456 72.9047C365.675 70.9859 364.304 68.7108 363.345 66.0793C362.385 63.4479 361.906 60.5697 361.906 57.4448V55.7179C361.906 52.0997 362.44 48.8789 363.509 46.0556C364.578 43.2048 366.031 40.7926 367.868 38.819C369.704 36.8455 371.787 35.3516 374.117 34.3373C376.447 33.3231 378.859 32.816 381.354 32.816C384.533 32.816 387.275 33.3643 389.577 34.4607C391.907 35.5571 393.812 37.0922 395.292 39.0657C396.772 41.0119 397.869 43.3145 398.582 45.9733C399.294 48.6048 399.651 51.4829 399.651 54.6078V58.0205H366.428V51.8119H392.044V51.2362C391.934 49.2627 391.523 47.3439 390.811 45.4799C390.125 43.616 389.029 42.081 387.521 40.8749C386.014 39.6688 383.958 39.0657 381.354 39.0657C379.627 39.0657 378.037 39.4358 376.584 40.1759C375.131 40.8886 373.884 41.9576 372.843 43.383C371.801 44.8084 370.992 46.549 370.417 48.6048C369.841 50.6606 369.553 53.0317 369.553 55.7179V57.4448C369.553 59.5555 369.841 61.5428 370.417 63.4067C371.02 65.2433 371.883 66.8605 373.007 68.2585C374.158 69.6565 375.543 70.7529 377.16 71.5478C378.805 72.3427 380.669 72.7402 382.752 72.7402C385.438 72.7402 387.713 72.192 389.577 71.0955C391.441 69.9991 393.072 68.5326 394.47 66.6961L399.075 70.3554C398.116 71.8082 396.896 73.1925 395.416 74.5082C393.935 75.8239 392.113 76.893 389.947 77.7153C387.809 78.5376 385.274 78.9488 382.341 78.9488Z" fill="#25E2BC"/>
<path d="M120.181 150.644L133.956 150.48C133.572 155.03 132.105 158.909 129.556 162.116C127.034 165.295 123.841 167.708 119.976 169.352C116.138 170.997 112.04 171.778 107.682 171.696C103.543 171.614 100.062 170.764 97.2385 169.147C94.4151 167.502 92.1948 165.309 90.5776 162.568C88.9603 159.799 87.8913 156.702 87.3705 153.276C86.8497 149.822 86.8223 146.258 87.2883 142.585L87.7405 139.337C88.2888 135.527 89.303 131.868 90.7832 128.359C92.2634 124.823 94.1958 121.671 96.5806 118.902C98.9928 116.134 101.857 113.968 105.174 112.406C108.491 110.816 112.246 110.062 116.44 110.144C120.908 110.227 124.704 111.159 127.829 112.94C130.981 114.722 133.421 117.216 135.148 120.424C136.902 123.631 137.889 127.413 138.108 131.772L124.088 131.731C124.17 129.62 123.964 127.811 123.471 126.303C122.977 124.796 122.1 123.631 120.839 122.808C119.606 121.959 117.865 121.493 115.618 121.41C113.178 121.328 111.136 121.835 109.491 122.932C107.874 124.001 106.558 125.44 105.544 127.249C104.53 129.058 103.749 131.018 103.2 133.129C102.68 135.239 102.282 137.281 102.008 139.255L101.597 142.626C101.405 144.244 101.227 146.067 101.062 148.095C100.898 150.096 100.966 152.028 101.268 153.892C101.569 155.729 102.268 157.264 103.365 158.497C104.461 159.731 106.174 160.389 108.504 160.471C110.697 160.526 112.602 160.183 114.22 159.443C115.837 158.676 117.139 157.552 118.126 156.072C119.14 154.564 119.825 152.755 120.181 150.644ZM113.973 94.9313L118.825 100.4L125.65 94.9724L137.533 94.7257L137.574 95.5891L123.183 107.02H114.466L102.789 95.5069L102.748 94.6846L113.973 94.9313ZM179.472 111.008H193.533L186.873 150.069C186.215 154.646 184.721 158.566 182.391 161.828C180.088 165.09 177.114 167.571 173.469 169.27C169.823 170.969 165.698 171.792 161.092 171.737C156.816 171.655 153.075 170.736 149.868 168.982C146.688 167.228 144.303 164.747 142.713 161.54C141.124 158.333 140.589 154.523 141.11 150.11L147.771 111.008H161.874L155.254 150.151C155.035 151.96 155.048 153.646 155.295 155.208C155.569 156.771 156.227 158.045 157.269 159.032C158.31 160.019 159.873 160.54 161.956 160.594C164.176 160.677 166.026 160.265 167.507 159.361C169.014 158.456 170.193 157.195 171.043 155.578C171.92 153.961 172.509 152.138 172.811 150.11L179.472 111.008ZM232.224 159.772L230.292 170.874H200.852L202.785 159.772H232.224ZM216.312 111.008L205.909 170.874H191.848L202.209 111.008H216.312ZM262.65 152.083L269.64 111.008H283.702L276.712 152.083C276.191 155.976 274.889 159.416 272.806 162.404C270.723 165.364 268.064 167.68 264.829 169.352C261.595 170.997 258.004 171.792 254.057 171.737C250.11 171.655 246.779 170.846 244.066 169.311C241.379 167.776 239.351 165.611 237.98 162.815C236.637 159.991 236.021 156.634 236.13 152.741L250.315 152.782C250.233 154.071 250.261 155.318 250.398 156.524C250.535 157.703 250.946 158.676 251.631 159.443C252.316 160.211 253.454 160.608 255.044 160.636C256.634 160.69 257.949 160.293 258.991 159.443C260.033 158.566 260.841 157.47 261.417 156.154C262.02 154.838 262.431 153.481 262.65 152.083ZM313.923 124.288L291.884 170.874H276.301L308.043 111.008H317.993L313.923 124.288ZM317.705 170.874L311.62 122.849L311.949 111.008H321.324L332.384 170.874H317.705ZM320.912 148.547L318.939 159.69H289.047L291.021 148.547H320.912ZM361.289 111.008L350.886 170.874H336.825L347.186 111.008H361.289ZM396.402 111.008L368.361 141.681L352.49 156.565L352.243 142.298L362.687 129.428L378.188 111.008H396.402ZM369.307 170.874L358.781 143.408L370.581 135.513L385.342 170.874H369.307Z" fill="#25E2BC"/>
<defs>
<linearGradient id="paint0_linear_11_93" x1="60.4436" y1="94.5" x2="-33.1877" y2="159.48" gradientUnits="userSpaceOnUse">
<stop stop-color="#25E2BC"/>
<stop offset="1" stop-color="#147C67"/>
</linearGradient>
</defs>
</svg>
