<svg width="87" height="38" viewBox="0 0 87 38" fill="none" xmlns="http://www.w3.org/2000/svg">
<path d="M1.61505 12.4249L3.2301 9.19476V7.57971H1.61505V4.34961H11.3054C11.763 4.34961 12.1468 4.50465 12.4569 4.81474C12.767 5.12483 12.9215 5.50814 12.9204 5.96466V7.57971L11.3054 10.8098H6.4602V9.19476L3.2301 12.4249H1.61505ZM0 36.6506V25.5875C0 25.2914 0.0473753 24.9754 0.142125 24.6395C0.236875 24.3036 0.351005 24.0005 0.484515 23.7302L6.4602 12.4249H11.3054C11.6822 12.8017 12.0456 13.3067 12.3955 13.9398C12.7454 14.5729 12.9204 15.1446 12.9204 15.655V36.6506H0Z" fill="white"/>
<path d="M27.1313 12.9307H28.8188C28.731 13.7393 28.4995 14.4629 28.1245 15.1016C27.7495 15.7402 27.2192 16.2471 26.5337 16.6221C25.8481 16.9912 24.9927 17.1758 23.9673 17.1758C23.2173 17.1758 22.5347 17.0352 21.9194 16.7539C21.3101 16.4727 20.7856 16.0742 20.3462 15.5586C19.9067 15.0371 19.5669 14.4131 19.3267 13.6865C19.0923 12.9541 18.9751 12.1396 18.9751 11.2432V9.96875C18.9751 9.07227 19.0923 8.26074 19.3267 7.53418C19.5669 6.80176 19.9097 6.1748 20.355 5.65332C20.8062 5.13184 21.3481 4.73047 21.981 4.44922C22.6138 4.16797 23.3257 4.02734 24.1167 4.02734C25.0835 4.02734 25.9009 4.20898 26.5688 4.57227C27.2368 4.93555 27.7554 5.43945 28.1245 6.08398C28.4995 6.72266 28.731 7.46387 28.8188 8.30762H27.1313C27.0493 7.70996 26.897 7.19727 26.6743 6.76953C26.4517 6.33594 26.1353 6.00195 25.7251 5.76758C25.3149 5.5332 24.7788 5.41602 24.1167 5.41602C23.5483 5.41602 23.0474 5.52441 22.6138 5.74121C22.186 5.95801 21.8257 6.26563 21.5327 6.66406C21.2456 7.0625 21.0288 7.54004 20.8823 8.09668C20.7358 8.65332 20.6626 9.27148 20.6626 9.95117V11.2432C20.6626 11.8701 20.7271 12.459 20.856 13.0098C20.9907 13.5605 21.1929 14.0439 21.4624 14.46C21.7319 14.876 22.0747 15.2041 22.4907 15.4443C22.9067 15.6787 23.3989 15.7959 23.9673 15.7959C24.688 15.7959 25.2622 15.6816 25.6899 15.4531C26.1177 15.2246 26.4399 14.8965 26.6567 14.4688C26.8794 14.041 27.0376 13.5283 27.1313 12.9307ZM22.561 0.494141L23.8882 1.98828L25.2153 0.494141H26.6216V0.582031L24.3892 2.99023H23.3872L21.1899 0.582031V0.494141H22.561ZM32.6509 7.49023V17H31.0161V7.49023H32.6509ZM30.8931 4.96777C30.8931 4.7041 30.9722 4.48145 31.1304 4.2998C31.2944 4.11816 31.5347 4.02734 31.8511 4.02734C32.1616 4.02734 32.3989 4.11816 32.563 4.2998C32.7329 4.48145 32.8179 4.7041 32.8179 4.96777C32.8179 5.21973 32.7329 5.43652 32.563 5.61816C32.3989 5.79395 32.1616 5.88184 31.8511 5.88184C31.5347 5.88184 31.2944 5.79395 31.1304 5.61816C30.9722 5.43652 30.8931 5.21973 30.8931 4.96777ZM40.7983 14.4775C40.7983 14.2432 40.7456 14.0264 40.6401 13.8271C40.5405 13.6221 40.3325 13.4375 40.0161 13.2734C39.7056 13.1035 39.2368 12.957 38.6099 12.834C38.0825 12.7227 37.605 12.5908 37.1772 12.4385C36.7554 12.2861 36.395 12.1016 36.0962 11.8848C35.8032 11.668 35.5776 11.4131 35.4194 11.1201C35.2612 10.8271 35.1821 10.4844 35.1821 10.0918C35.1821 9.7168 35.2642 9.3623 35.4282 9.02832C35.5981 8.69434 35.8354 8.39844 36.1401 8.14062C36.4507 7.88281 36.8228 7.68066 37.2563 7.53418C37.6899 7.3877 38.1733 7.31445 38.7065 7.31445C39.4683 7.31445 40.1187 7.44922 40.6577 7.71875C41.1968 7.98828 41.6099 8.34863 41.897 8.7998C42.1841 9.24512 42.3276 9.74023 42.3276 10.2852H40.7017C40.7017 10.0215 40.6226 9.7666 40.4644 9.52051C40.312 9.26855 40.0864 9.06055 39.7876 8.89648C39.4946 8.73242 39.1343 8.65039 38.7065 8.65039C38.2554 8.65039 37.8892 8.7207 37.6079 8.86133C37.3325 8.99609 37.1304 9.16895 37.0015 9.37988C36.8784 9.59082 36.8169 9.81348 36.8169 10.0479C36.8169 10.2236 36.8462 10.3818 36.9048 10.5225C36.9692 10.6572 37.0806 10.7832 37.2388 10.9004C37.397 11.0117 37.6196 11.1172 37.9067 11.2168C38.1938 11.3164 38.5601 11.416 39.0054 11.5156C39.7847 11.6914 40.4263 11.9023 40.9302 12.1484C41.4341 12.3945 41.8091 12.6963 42.0552 13.0537C42.3013 13.4111 42.4243 13.8447 42.4243 14.3545C42.4243 14.7705 42.3364 15.1514 42.1606 15.4971C41.9907 15.8428 41.7417 16.1416 41.4136 16.3936C41.0913 16.6396 40.7046 16.833 40.2534 16.9736C39.8081 17.1084 39.3071 17.1758 38.7505 17.1758C37.9126 17.1758 37.2036 17.0264 36.6235 16.7275C36.0435 16.4287 35.604 16.042 35.3052 15.5674C35.0063 15.0928 34.8569 14.5918 34.8569 14.0645H36.4917C36.5151 14.5098 36.644 14.8643 36.8784 15.1279C37.1128 15.3857 37.3999 15.5703 37.7397 15.6816C38.0796 15.7871 38.4165 15.8398 38.7505 15.8398C39.1958 15.8398 39.5679 15.7812 39.8667 15.6641C40.1714 15.5469 40.4028 15.3857 40.561 15.1807C40.7192 14.9756 40.7983 14.7412 40.7983 14.4775ZM37.6255 3.50879L38.9526 5.00293L40.2798 3.50879H41.686V3.59668L39.4536 6.00488H38.4517L36.2544 3.59668V3.50879H37.6255ZM48.3657 15.8398C48.7524 15.8398 49.1099 15.7607 49.438 15.6025C49.7661 15.4443 50.0356 15.2275 50.2466 14.9521C50.4575 14.6709 50.5776 14.3516 50.6069 13.9941H52.1538C52.1245 14.5566 51.9341 15.0811 51.5825 15.5674C51.2368 16.0479 50.7827 16.4375 50.2202 16.7363C49.6577 17.0293 49.0396 17.1758 48.3657 17.1758C47.6509 17.1758 47.0269 17.0498 46.4937 16.7979C45.9663 16.5459 45.5269 16.2002 45.1753 15.7607C44.8296 15.3213 44.5688 14.8174 44.3931 14.249C44.2231 13.6748 44.1382 13.0684 44.1382 12.4297V12.0605C44.1382 11.4219 44.2231 10.8184 44.3931 10.25C44.5688 9.67578 44.8296 9.16895 45.1753 8.72949C45.5269 8.29004 45.9663 7.94434 46.4937 7.69238C47.0269 7.44043 47.6509 7.31445 48.3657 7.31445C49.1099 7.31445 49.7603 7.4668 50.3169 7.77148C50.8735 8.07031 51.3101 8.48047 51.6265 9.00195C51.9487 9.51758 52.1245 10.1035 52.1538 10.7598H50.6069C50.5776 10.3672 50.4663 10.0127 50.2729 9.69629C50.0854 9.37988 49.8276 9.12793 49.4995 8.94043C49.1772 8.74707 48.7993 8.65039 48.3657 8.65039C47.8677 8.65039 47.4487 8.75 47.1089 8.94922C46.7749 9.14258 46.5083 9.40625 46.3091 9.74023C46.1157 10.0684 45.9751 10.4346 45.8872 10.8389C45.8052 11.2373 45.7642 11.6445 45.7642 12.0605V12.4297C45.7642 12.8457 45.8052 13.2559 45.8872 13.6602C45.9692 14.0645 46.1069 14.4307 46.3003 14.7588C46.4995 15.0869 46.7661 15.3506 47.1001 15.5498C47.4399 15.7432 47.8618 15.8398 48.3657 15.8398ZM47.1089 6.08398L48.814 3.5H50.7739L48.4185 6.08398H47.1089ZM57.9282 17.1758C57.2661 17.1758 56.6655 17.0645 56.1265 16.8418C55.5933 16.6133 55.1333 16.2939 54.7466 15.8838C54.3657 15.4736 54.0728 14.9873 53.8677 14.4248C53.6626 13.8623 53.5601 13.2471 53.5601 12.5791V12.21C53.5601 11.4365 53.6743 10.748 53.9028 10.1445C54.1313 9.53516 54.4419 9.01953 54.8345 8.59766C55.2271 8.17578 55.6724 7.85645 56.1704 7.63965C56.6685 7.42285 57.1841 7.31445 57.7173 7.31445C58.397 7.31445 58.9829 7.43164 59.4751 7.66602C59.9731 7.90039 60.3804 8.22852 60.6968 8.65039C61.0132 9.06641 61.2476 9.55859 61.3999 10.127C61.5522 10.6895 61.6284 11.3047 61.6284 11.9727V12.7021H54.5269V11.375H60.0024V11.252C59.979 10.8301 59.8911 10.4199 59.7388 10.0215C59.5923 9.62305 59.3579 9.29492 59.0356 9.03711C58.7134 8.7793 58.2739 8.65039 57.7173 8.65039C57.3481 8.65039 57.0083 8.72949 56.6978 8.8877C56.3872 9.04004 56.1206 9.26855 55.8979 9.57324C55.6753 9.87793 55.5024 10.25 55.3794 10.6895C55.2563 11.1289 55.1948 11.6357 55.1948 12.21V12.5791C55.1948 13.0303 55.2563 13.4551 55.3794 13.8535C55.5083 14.2461 55.6929 14.5918 55.9331 14.8906C56.1792 15.1895 56.4751 15.4238 56.8208 15.5938C57.1724 15.7637 57.5708 15.8486 58.0161 15.8486C58.5903 15.8486 59.0767 15.7314 59.4751 15.4971C59.8735 15.2627 60.2222 14.9492 60.521 14.5566L61.5054 15.3389C61.3003 15.6494 61.0396 15.9453 60.7231 16.2266C60.4067 16.5078 60.0171 16.7363 59.5542 16.9121C59.0972 17.0879 58.5552 17.1758 57.9282 17.1758ZM65.1528 9.52051V17H63.5269V7.49023H65.0649L65.1528 9.52051ZM64.7661 11.8848L64.0894 11.8584C64.0952 11.208 64.1919 10.6074 64.3794 10.0566C64.5669 9.5 64.8306 9.0166 65.1704 8.60645C65.5103 8.19629 65.9146 7.87988 66.3833 7.65723C66.8579 7.42871 67.3823 7.31445 67.9565 7.31445C68.4253 7.31445 68.8472 7.37891 69.2222 7.50781C69.5972 7.63086 69.9165 7.83008 70.1802 8.10547C70.4497 8.38086 70.6548 8.73828 70.7954 9.17773C70.936 9.61133 71.0063 10.1416 71.0063 10.7686V17H69.3716V10.751C69.3716 10.2529 69.2983 9.85449 69.1519 9.55566C69.0054 9.25098 68.7915 9.03125 68.5103 8.89648C68.229 8.75586 67.8833 8.68555 67.4731 8.68555C67.0688 8.68555 66.6997 8.77051 66.3657 8.94043C66.0376 9.11035 65.7534 9.34473 65.5132 9.64355C65.2788 9.94238 65.0942 10.2852 64.9595 10.6719C64.8306 11.0527 64.7661 11.457 64.7661 11.8848ZM73.52 7.49023H75.1548V18.1338C75.1548 18.7139 75.061 19.2061 74.8735 19.6104C74.6919 20.0146 74.4165 20.3193 74.0474 20.5244C73.6841 20.7354 73.2241 20.8408 72.6675 20.8408C72.521 20.8408 72.3511 20.8262 72.1577 20.7969C71.9585 20.7676 71.7915 20.7324 71.6567 20.6914L71.6655 19.3818C71.7769 19.4053 71.9028 19.4229 72.0435 19.4346C72.1841 19.4521 72.3071 19.4609 72.4126 19.4609C72.6528 19.4609 72.855 19.417 73.019 19.3291C73.1831 19.2412 73.3062 19.1006 73.3882 18.9072C73.4761 18.7139 73.52 18.4561 73.52 18.1338V7.49023ZM73.353 4.96777C73.353 4.7041 73.4351 4.48145 73.5991 4.2998C73.7632 4.11816 74.0005 4.02734 74.311 4.02734C74.6274 4.02734 74.8677 4.11816 75.0317 4.2998C75.1958 4.48145 75.2778 4.7041 75.2778 4.96777C75.2778 5.21973 75.1958 5.43652 75.0317 5.61816C74.8677 5.79395 74.6274 5.88184 74.311 5.88184C74.0005 5.88184 73.7632 5.79395 73.5991 5.61816C73.4351 5.43652 73.353 5.21973 73.353 4.96777ZM81.729 17.1758C81.0669 17.1758 80.4663 17.0645 79.9272 16.8418C79.394 16.6133 78.9341 16.2939 78.5474 15.8838C78.1665 15.4736 77.8735 14.9873 77.6685 14.4248C77.4634 13.8623 77.3608 13.2471 77.3608 12.5791V12.21C77.3608 11.4365 77.4751 10.748 77.7036 10.1445C77.9321 9.53516 78.2427 9.01953 78.6353 8.59766C79.0278 8.17578 79.4731 7.85645 79.9712 7.63965C80.4692 7.42285 80.9849 7.31445 81.5181 7.31445C82.1978 7.31445 82.7837 7.43164 83.2759 7.66602C83.7739 7.90039 84.1812 8.22852 84.4976 8.65039C84.814 9.06641 85.0483 9.55859 85.2007 10.127C85.353 10.6895 85.4292 11.3047 85.4292 11.9727V12.7021H78.3276V11.375H83.8032V11.252C83.7798 10.8301 83.6919 10.4199 83.5396 10.0215C83.3931 9.62305 83.1587 9.29492 82.8364 9.03711C82.5142 8.7793 82.0747 8.65039 81.5181 8.65039C81.1489 8.65039 80.8091 8.72949 80.4985 8.8877C80.188 9.04004 79.9214 9.26855 79.6987 9.57324C79.4761 9.87793 79.3032 10.25 79.1802 10.6895C79.0571 11.1289 78.9956 11.6357 78.9956 12.21V12.5791C78.9956 13.0303 79.0571 13.4551 79.1802 13.8535C79.3091 14.2461 79.4937 14.5918 79.7339 14.8906C79.98 15.1895 80.2759 15.4238 80.6216 15.5938C80.9731 15.7637 81.3716 15.8486 81.8169 15.8486C82.3911 15.8486 82.8774 15.7314 83.2759 15.4971C83.6743 15.2627 84.0229 14.9492 84.3218 14.5566L85.3062 15.3389C85.1011 15.6494 84.8403 15.9453 84.5239 16.2266C84.2075 16.5078 83.8179 16.7363 83.355 16.9121C82.8979 17.0879 82.356 17.1758 81.729 17.1758Z" fill="white"/>
<path d="M25.6899 32.6758L28.6343 32.6406C28.5522 33.6133 28.2388 34.4424 27.6938 35.1279C27.1548 35.8076 26.4722 36.3232 25.646 36.6748C24.8257 37.0264 23.9497 37.1934 23.0181 37.1758C22.1333 37.1582 21.3892 36.9766 20.7856 36.6309C20.1821 36.2793 19.7075 35.8105 19.3618 35.2246C19.0161 34.6328 18.7876 33.9707 18.6763 33.2383C18.5649 32.5 18.5591 31.7383 18.6587 30.9531L18.7554 30.2588C18.8726 29.4443 19.0894 28.6621 19.4058 27.9121C19.7222 27.1562 20.1353 26.4824 20.645 25.8906C21.1606 25.2988 21.7729 24.8359 22.4819 24.502C23.1909 24.1621 23.9937 24.001 24.8901 24.0186C25.8452 24.0361 26.6567 24.2354 27.3247 24.6162C27.9985 24.9971 28.52 25.5303 28.8892 26.2158C29.2642 26.9014 29.4751 27.71 29.522 28.6416L26.5249 28.6328C26.5425 28.1816 26.4985 27.7949 26.3931 27.4727C26.2876 27.1504 26.1001 26.9014 25.8306 26.7256C25.5669 26.5439 25.1948 26.4443 24.7144 26.4268C24.1929 26.4092 23.7563 26.5176 23.4048 26.752C23.0591 26.9805 22.7778 27.2881 22.561 27.6748C22.3442 28.0615 22.1772 28.4805 22.0601 28.9316C21.9487 29.3828 21.8638 29.8193 21.8052 30.2412L21.7173 30.9619C21.6763 31.3076 21.6382 31.6973 21.603 32.1309C21.5679 32.5586 21.5825 32.9717 21.647 33.3701C21.7114 33.7627 21.8608 34.0908 22.0952 34.3545C22.3296 34.6182 22.6958 34.7588 23.1938 34.7764C23.6626 34.7881 24.0698 34.7148 24.4155 34.5566C24.7612 34.3926 25.0396 34.1523 25.2505 33.8359C25.4673 33.5137 25.6138 33.127 25.6899 32.6758ZM24.3628 20.7666L25.3999 21.9355L26.8589 20.7754L29.3989 20.7227L29.4077 20.9072L26.3315 23.3506H24.4683L21.9722 20.8896L21.9634 20.7139L24.3628 20.7666ZM38.3638 24.2031H41.3696L39.9458 32.5527C39.8052 33.5312 39.4858 34.3691 38.9878 35.0664C38.4956 35.7637 37.8599 36.2939 37.0806 36.6572C36.3013 37.0205 35.4194 37.1963 34.4351 37.1846C33.521 37.167 32.7212 36.9707 32.0356 36.5957C31.356 36.2207 30.8462 35.6904 30.5063 35.0049C30.1665 34.3193 30.0522 33.5049 30.1636 32.5615L31.5874 24.2031H34.6021L33.187 32.5703C33.1401 32.957 33.1431 33.3174 33.1958 33.6514C33.2544 33.9854 33.395 34.2578 33.6177 34.4688C33.8403 34.6797 34.1743 34.791 34.6196 34.8027C35.0942 34.8203 35.4897 34.7324 35.8062 34.5391C36.1284 34.3457 36.3804 34.0762 36.562 33.7305C36.7495 33.3848 36.8755 32.9951 36.9399 32.5615L38.3638 24.2031ZM49.6401 34.627L49.2271 37H42.9341L43.3472 34.627H49.6401ZM46.2388 24.2031L44.0151 37H41.0093L43.2241 24.2031H46.2388ZM56.144 32.9834L57.6382 24.2031H60.644L59.1499 32.9834C59.0386 33.8154 58.7603 34.5508 58.3149 35.1895C57.8696 35.8223 57.3013 36.3174 56.6099 36.6748C55.9185 37.0264 55.1509 37.1963 54.3071 37.1846C53.4634 37.167 52.7515 36.9941 52.1714 36.666C51.5972 36.3379 51.1636 35.875 50.8706 35.2773C50.5835 34.6738 50.4517 33.9561 50.4751 33.124L53.5073 33.1328C53.4897 33.4082 53.4956 33.6748 53.5249 33.9326C53.5542 34.1846 53.6421 34.3926 53.7886 34.5566C53.9351 34.7207 54.1782 34.8057 54.5181 34.8115C54.8579 34.8232 55.1392 34.7383 55.3618 34.5566C55.5845 34.3691 55.7573 34.1348 55.8804 33.8535C56.0093 33.5723 56.0972 33.2822 56.144 32.9834ZM67.104 27.042L62.3931 37H59.062L65.8472 24.2031H67.9741L67.104 27.042ZM67.9126 37L66.6118 26.7344L66.6821 24.2031H68.686L71.0503 37H67.9126ZM68.5981 32.2275L68.1763 34.6094H61.7866L62.2085 32.2275H68.5981ZM77.229 24.2031L75.0054 37H71.9995L74.2144 24.2031H77.229ZM84.7349 24.2031L78.7407 30.7598L75.3481 33.9414L75.2954 30.8916L77.5278 28.1406L80.8413 24.2031H84.7349ZM78.9429 37L76.6929 31.1289L79.2153 29.4414L82.3706 37H78.9429Z" fill="white"/>
</svg>
