<svg width="24" height="25" viewBox="0 0 24 25" fill="none" xmlns="http://www.w3.org/2000/svg">
<path d="M20 18.4131H18V9.66309L12 13.4131L6 9.66309V18.4131H4V6.41309H5.2L12 10.6631L18.8 6.41309H20M20 4.41309H4C2.89 4.41309 2 5.30309 2 6.41309V18.4131C2 18.9435 2.21071 19.4522 2.58579 19.8273C2.96086 20.2024 3.46957 20.4131 4 20.4131H20C20.5304 20.4131 21.0391 20.2024 21.4142 19.8273C21.7893 19.4522 22 18.9435 22 18.4131V6.41309C22 5.88265 21.7893 5.37394 21.4142 4.99887C21.0391 4.6238 20.5304 4.41309 20 4.41309Z" fill="white"/>
</svg>
